<svg width="30" height="31" viewBox="0 0 30 31" fill="none" xmlns="http://www.w3.org/2000/svg">
<path d="M26.249 0.5H3.74985C1.6845 0.5 0 2.19338 0 4.21659V21.1268C0 23.203 1.6845 24.8434 3.74985 24.8434H9.37463V29.7898C9.37463 30.3691 10.0203 30.7057 10.4949 30.3611L17.813 24.8434H26.2501C28.3155 24.8434 30 23.15 30 21.1268V4.21659C29.9988 2.19338 28.3641 0.5 26.249 0.5ZM27.2392 21.2328C27.2392 21.7482 26.8144 22.1752 26.3017 22.1752H16.9271L12.2398 25.7092V22.1752H3.80259C3.28991 22.1752 2.86512 21.7482 2.86512 21.2328V4.2696C2.86512 3.75423 3.28991 3.3272 3.80259 3.3272H26.3017C26.8144 3.3272 27.2392 3.75423 27.2392 4.2696V21.2328Z" fill="#FBFBFE"/>
</svg>
