<svg width="36" height="38" viewBox="0 0 36 38" fill="none" xmlns="http://www.w3.org/2000/svg">
<path d="M17.8333 38C27.6824 38 35.6667 29.4934 35.6667 19C35.6667 8.50659 27.6824 0 17.8333 0C7.98425 0 0 8.50659 0 19C0 29.4934 7.98425 38 17.8333 38Z" fill="#7193FF"/>
<path d="M29.7222 19C29.7222 17.4667 28.5542 16.2222 27.115 16.2222C26.4059 16.2222 25.7801 16.5111 25.3213 17C23.5484 15.6445 21.0872 14.7556 18.3757 14.6445L19.5645 8.71112L23.4232 9.57779C23.4649 10.6222 24.2784 11.4667 25.2796 11.4667C26.3016 11.4667 27.1359 10.5778 27.1359 9.4889C27.1359 8.40001 26.3016 7.51112 25.2796 7.51112C24.5495 7.51112 23.9238 7.95557 23.6318 8.62223L19.3142 7.64446C19.1891 7.62224 19.064 7.64446 18.9597 7.71112C18.8554 7.77779 18.7928 7.8889 18.7511 8.02224L17.4371 14.6445C14.663 14.7333 12.1809 15.6 10.3872 17C9.92828 16.5333 9.28169 16.2222 8.59339 16.2222C7.15421 16.2222 5.98618 17.4667 5.98618 19C5.98618 20.1333 6.61191 21.0889 7.52965 21.5333C7.48793 21.8 7.46707 22.0889 7.46707 22.3778C7.46707 26.6445 12.1183 30.0889 17.8751 30.0889C23.6318 30.0889 28.2831 26.6445 28.2831 22.3778C28.2831 22.0889 28.2622 21.8222 28.2205 21.5556C29.0757 21.1111 29.7222 20.1333 29.7222 19ZM11.8889 20.9778C11.8889 19.8889 12.7232 19 13.7452 19C14.7673 19 15.6016 19.8889 15.6016 20.9778C15.6016 22.0667 14.7673 22.9556 13.7452 22.9556C12.7232 22.9556 11.8889 22.0667 11.8889 20.9778ZM22.2552 26.2C20.9829 27.5556 18.5634 27.6445 17.8542 27.6445C17.145 27.6445 14.7047 27.5333 13.4532 26.2C13.2655 26 13.2655 25.6667 13.4532 25.4667C13.641 25.2667 13.9538 25.2667 14.1415 25.4667C14.9341 26.3111 16.6445 26.6222 17.8751 26.6222C19.1057 26.6222 20.7951 26.3111 21.6086 25.4667C21.7963 25.2667 22.1092 25.2667 22.2969 25.4667C22.4429 25.6889 22.4429 26 22.2552 26.2ZM21.9215 22.9556C20.8994 22.9556 20.0651 22.0667 20.0651 20.9778C20.0651 19.8889 20.8994 19 21.9215 19C22.9435 19 23.7778 19.8889 23.7778 20.9778C23.7778 22.0667 22.9435 22.9556 21.9215 22.9556Z" fill="white"/>
</svg>
