<svg width="28" height="34" viewBox="0 0 28 34" fill="none" xmlns="http://www.w3.org/2000/svg">
<path d="M11.382 0.279999C5.34821 0.279999 0.468002 6.05719 0.468002 13.2C0.468002 20.3428 5.34821 26.12 11.382 26.12C13.5362 26.12 15.5299 25.3719 17.2202 24.1012L25.1048 33.435L27.8333 30.205L20.049 21.0137C21.4484 18.8406 22.296 16.148 22.296 13.2C22.296 6.05719 17.4158 0.279999 11.382 0.279999ZM11.382 3.32C16.0039 3.32 19.728 7.72859 19.728 13.2C19.728 18.6714 16.0039 23.08 11.382 23.08C6.7601 23.08 3.036 18.6714 3.036 13.2C3.036 7.72859 6.7601 3.32 11.382 3.32Z" fill="#7193FF"/>
</svg>
